<mxfile host="app.diagrams.net" modified="2024-06-25T11:16:34.501Z" agent="Mozilla/5.0 (Macintosh; Intel Mac OS X 10_15_7) AppleWebKit/537.36 (KHTML, like Gecko) Chrome/126.0.0.0 Safari/537.36" etag="mxAN0K_SJ2XicqOxgNW2" version="24.5.5" type="device">
  <diagram name="Страница — 1" id="9I8aXV5J5BkNfaQTiB17">
    <mxGraphModel dx="2069" dy="1989" grid="1" gridSize="10" guides="1" tooltips="1" connect="1" arrows="1" fold="1" page="1" pageScale="1" pageWidth="827" pageHeight="1169" math="0" shadow="0">
      <root>
        <mxCell id="0" />
        <mxCell id="1" parent="0" />
        <mxCell id="X78c8GKSbH_yiS5C05WD-1" value="reader" style="shape=umlLifeline;perimeter=lifelinePerimeter;whiteSpace=wrap;html=1;container=1;dropTarget=0;collapsible=0;recursiveResize=0;outlineConnect=0;portConstraint=eastwest;newEdgeStyle={&quot;curved&quot;:0,&quot;rounded&quot;:0};participant=umlEntity;size=40;" parent="1" vertex="1">
          <mxGeometry x="670" y="40" width="210" height="1700" as="geometry" />
        </mxCell>
        <mxCell id="X78c8GKSbH_yiS5C05WD-3" value="writer" style="shape=umlLifeline;perimeter=lifelinePerimeter;whiteSpace=wrap;html=1;container=1;dropTarget=0;collapsible=0;recursiveResize=0;outlineConnect=0;portConstraint=eastwest;newEdgeStyle={&quot;curved&quot;:0,&quot;rounded&quot;:0};participant=umlEntity;" parent="1" vertex="1">
          <mxGeometry x="-100" y="40" width="210" height="1880" as="geometry" />
        </mxCell>
        <mxCell id="X78c8GKSbH_yiS5C05WD-4" value="Shared memory object" style="rounded=0;whiteSpace=wrap;html=1;" parent="1" vertex="1">
          <mxGeometry x="170" y="110" width="360" height="40" as="geometry" />
        </mxCell>
        <mxCell id="X78c8GKSbH_yiS5C05WD-5" value="data&lt;br&gt;buffer" style="rounded=0;whiteSpace=wrap;html=1;" parent="1" vertex="1">
          <mxGeometry x="290" y="155" width="60" height="35" as="geometry" />
        </mxCell>
        <mxCell id="X78c8GKSbH_yiS5C05WD-6" value="buffer&lt;br&gt;size" style="rounded=0;whiteSpace=wrap;html=1;" parent="1" vertex="1">
          <mxGeometry x="350" y="155" width="60" height="35" as="geometry" />
        </mxCell>
        <mxCell id="X78c8GKSbH_yiS5C05WD-7" value="message&lt;br&gt;queue 2" style="rounded=0;whiteSpace=wrap;html=1;" parent="1" vertex="1">
          <mxGeometry x="230" y="155" width="60" height="35" as="geometry" />
        </mxCell>
        <mxCell id="X78c8GKSbH_yiS5C05WD-9" value="data&lt;br&gt;buffer" style="rounded=0;whiteSpace=wrap;html=1;" parent="1" vertex="1">
          <mxGeometry x="410" y="155" width="60" height="35" as="geometry" />
        </mxCell>
        <mxCell id="X78c8GKSbH_yiS5C05WD-10" value="buffer&lt;div&gt;size&lt;/div&gt;" style="rounded=0;whiteSpace=wrap;html=1;" parent="1" vertex="1">
          <mxGeometry x="470" y="155" width="60" height="35" as="geometry" />
        </mxCell>
        <mxCell id="X78c8GKSbH_yiS5C05WD-19" value="" style="rounded=0;whiteSpace=wrap;html=1;dashed=1;dashPattern=12 12;" parent="1" vertex="1">
          <mxGeometry x="290" y="440" width="60" height="35" as="geometry" />
        </mxCell>
        <mxCell id="X78c8GKSbH_yiS5C05WD-20" value="" style="rounded=0;whiteSpace=wrap;html=1;dashed=1;dashPattern=12 12;" parent="1" vertex="1">
          <mxGeometry x="350" y="440" width="60" height="35" as="geometry" />
        </mxCell>
        <mxCell id="X78c8GKSbH_yiS5C05WD-21" value="message&lt;br&gt;queue 2" style="rounded=0;whiteSpace=wrap;html=1;" parent="1" vertex="1">
          <mxGeometry x="230" y="440" width="60" height="35" as="geometry" />
        </mxCell>
        <mxCell id="X78c8GKSbH_yiS5C05WD-22" value="data&lt;br&gt;buffer" style="rounded=0;whiteSpace=wrap;html=1;" parent="1" vertex="1">
          <mxGeometry x="410" y="440" width="60" height="35" as="geometry" />
        </mxCell>
        <mxCell id="X78c8GKSbH_yiS5C05WD-23" value="buffer&lt;div&gt;size&lt;/div&gt;" style="rounded=0;whiteSpace=wrap;html=1;" parent="1" vertex="1">
          <mxGeometry x="470" y="440" width="60" height="35" as="geometry" />
        </mxCell>
        <mxCell id="X78c8GKSbH_yiS5C05WD-24" value="data&lt;br&gt;buffer" style="rounded=0;whiteSpace=wrap;html=1;" parent="1" vertex="1">
          <mxGeometry x="645" y="440" width="60" height="35" as="geometry" />
        </mxCell>
        <mxCell id="X78c8GKSbH_yiS5C05WD-25" value="buffer&lt;br&gt;size" style="rounded=0;whiteSpace=wrap;html=1;" parent="1" vertex="1">
          <mxGeometry x="705" y="440" width="60" height="35" as="geometry" />
        </mxCell>
        <mxCell id="X78c8GKSbH_yiS5C05WD-26" value="" style="endArrow=classic;html=1;rounded=0;exitX=0;exitY=1;exitDx=0;exitDy=0;entryX=0.5;entryY=1;entryDx=0;entryDy=0;" parent="1" target="X78c8GKSbH_yiS5C05WD-24" edge="1">
          <mxGeometry width="50" height="50" relative="1" as="geometry">
            <mxPoint x="350" y="475" as="sourcePoint" />
            <mxPoint x="610" y="475" as="targetPoint" />
            <Array as="points">
              <mxPoint x="350" y="520" />
              <mxPoint x="675" y="520" />
            </Array>
          </mxGeometry>
        </mxCell>
        <mxCell id="X78c8GKSbH_yiS5C05WD-27" value="" style="endArrow=classic;html=1;rounded=0;" parent="1" edge="1">
          <mxGeometry width="50" height="50" relative="1" as="geometry">
            <mxPoint x="844.5" y="740" as="sourcePoint" />
            <mxPoint x="74.5" y="740" as="targetPoint" />
          </mxGeometry>
        </mxCell>
        <mxCell id="X78c8GKSbH_yiS5C05WD-28" value="you may write 1 more buffer" style="edgeLabel;html=1;align=center;verticalAlign=middle;resizable=0;points=[];" parent="X78c8GKSbH_yiS5C05WD-27" vertex="1" connectable="0">
          <mxGeometry x="-0.1489" y="2" relative="1" as="geometry">
            <mxPoint as="offset" />
          </mxGeometry>
        </mxCell>
        <mxCell id="X78c8GKSbH_yiS5C05WD-40" value="" style="rounded=0;whiteSpace=wrap;html=1;dashed=1;dashPattern=12 12;" parent="1" vertex="1">
          <mxGeometry x="645" y="590" width="60" height="35" as="geometry" />
        </mxCell>
        <mxCell id="X78c8GKSbH_yiS5C05WD-41" value="" style="rounded=0;whiteSpace=wrap;html=1;dashed=1;dashPattern=12 12;" parent="1" vertex="1">
          <mxGeometry x="705" y="590" width="60" height="35" as="geometry" />
        </mxCell>
        <mxCell id="X78c8GKSbH_yiS5C05WD-42" value="" style="endArrow=none;html=1;rounded=0;" parent="1" edge="1">
          <mxGeometry width="50" height="50" relative="1" as="geometry">
            <mxPoint x="610.5" y="550" as="sourcePoint" />
            <mxPoint x="785" y="550" as="targetPoint" />
          </mxGeometry>
        </mxCell>
        <mxCell id="X78c8GKSbH_yiS5C05WD-43" value="reading" style="edgeLabel;html=1;align=center;verticalAlign=middle;resizable=0;points=[];" parent="X78c8GKSbH_yiS5C05WD-42" vertex="1" connectable="0">
          <mxGeometry x="0.0201" y="2" relative="1" as="geometry">
            <mxPoint as="offset" />
          </mxGeometry>
        </mxCell>
        <mxCell id="X78c8GKSbH_yiS5C05WD-50" value="data&lt;br&gt;buffer" style="rounded=0;whiteSpace=wrap;html=1;" parent="1" vertex="1">
          <mxGeometry x="290" y="590" width="60" height="35" as="geometry" />
        </mxCell>
        <mxCell id="X78c8GKSbH_yiS5C05WD-51" value="buffer&lt;br&gt;size" style="rounded=0;whiteSpace=wrap;html=1;" parent="1" vertex="1">
          <mxGeometry x="350" y="590" width="60" height="35" as="geometry" />
        </mxCell>
        <mxCell id="X78c8GKSbH_yiS5C05WD-52" value="message&lt;br&gt;queue 2" style="rounded=0;whiteSpace=wrap;html=1;" parent="1" vertex="1">
          <mxGeometry x="230" y="590" width="60" height="35" as="geometry" />
        </mxCell>
        <mxCell id="X78c8GKSbH_yiS5C05WD-53" value="data&lt;br&gt;buffer" style="rounded=0;whiteSpace=wrap;html=1;" parent="1" vertex="1">
          <mxGeometry x="410" y="590" width="60" height="35" as="geometry" />
        </mxCell>
        <mxCell id="X78c8GKSbH_yiS5C05WD-54" value="buffer&lt;div&gt;size&lt;/div&gt;" style="rounded=0;whiteSpace=wrap;html=1;" parent="1" vertex="1">
          <mxGeometry x="470" y="590" width="60" height="35" as="geometry" />
        </mxCell>
        <mxCell id="X78c8GKSbH_yiS5C05WD-55" value="" style="endArrow=classic;html=1;rounded=0;exitX=0.5;exitY=1;exitDx=0;exitDy=0;entryX=0;entryY=1;entryDx=0;entryDy=0;" parent="1" source="X78c8GKSbH_yiS5C05WD-40" target="X78c8GKSbH_yiS5C05WD-51" edge="1">
          <mxGeometry width="50" height="50" relative="1" as="geometry">
            <mxPoint x="605" y="725" as="sourcePoint" />
            <mxPoint x="340" y="660" as="targetPoint" />
            <Array as="points">
              <mxPoint x="675" y="660" />
              <mxPoint x="350" y="660" />
            </Array>
          </mxGeometry>
        </mxCell>
        <mxCell id="X78c8GKSbH_yiS5C05WD-56" value="" style="rounded=0;whiteSpace=wrap;html=1;dashed=1;dashPattern=12 12;" parent="1" vertex="1">
          <mxGeometry x="285.5" y="807" width="60" height="35" as="geometry" />
        </mxCell>
        <mxCell id="X78c8GKSbH_yiS5C05WD-57" value="" style="rounded=0;whiteSpace=wrap;html=1;dashed=1;dashPattern=12 12;" parent="1" vertex="1">
          <mxGeometry x="345.5" y="807" width="60" height="35" as="geometry" />
        </mxCell>
        <mxCell id="X78c8GKSbH_yiS5C05WD-58" value="message&lt;br&gt;queue2" style="rounded=0;whiteSpace=wrap;html=1;" parent="1" vertex="1">
          <mxGeometry x="225.5" y="807" width="60" height="35" as="geometry" />
        </mxCell>
        <mxCell id="X78c8GKSbH_yiS5C05WD-59" value="" style="rounded=0;whiteSpace=wrap;html=1;dashed=1;dashPattern=12 12;" parent="1" vertex="1">
          <mxGeometry x="405.5" y="807" width="60" height="35" as="geometry" />
        </mxCell>
        <mxCell id="X78c8GKSbH_yiS5C05WD-60" value="" style="rounded=0;whiteSpace=wrap;html=1;dashed=1;dashPattern=12 12;" parent="1" vertex="1">
          <mxGeometry x="465.5" y="807" width="60" height="35" as="geometry" />
        </mxCell>
        <mxCell id="X78c8GKSbH_yiS5C05WD-61" value="" style="endArrow=classic;html=1;rounded=0;exitX=0;exitY=1;exitDx=0;exitDy=0;entryX=0.5;entryY=1;entryDx=0;entryDy=0;" parent="1" source="X78c8GKSbH_yiS5C05WD-57" target="X78c8GKSbH_yiS5C05WD-65" edge="1">
          <mxGeometry width="50" height="50" relative="1" as="geometry">
            <mxPoint x="385.5" y="740" as="sourcePoint" />
            <mxPoint x="245.5" y="890" as="targetPoint" />
            <Array as="points">
              <mxPoint x="345.5" y="890" />
              <mxPoint x="105" y="890" />
            </Array>
          </mxGeometry>
        </mxCell>
        <mxCell id="X78c8GKSbH_yiS5C05WD-62" value="data&lt;br&gt;buffer" style="rounded=0;whiteSpace=wrap;html=1;" parent="1" vertex="1">
          <mxGeometry x="645" y="807" width="60" height="35" as="geometry" />
        </mxCell>
        <mxCell id="X78c8GKSbH_yiS5C05WD-63" value="buffer&lt;br&gt;size" style="rounded=0;whiteSpace=wrap;html=1;" parent="1" vertex="1">
          <mxGeometry x="705" y="807" width="60" height="35" as="geometry" />
        </mxCell>
        <mxCell id="X78c8GKSbH_yiS5C05WD-64" value="data&lt;br&gt;buffer" style="rounded=0;whiteSpace=wrap;html=1;" parent="1" vertex="1">
          <mxGeometry x="15" y="807" width="60" height="35" as="geometry" />
        </mxCell>
        <mxCell id="X78c8GKSbH_yiS5C05WD-65" value="buffer&lt;br&gt;size" style="rounded=0;whiteSpace=wrap;html=1;" parent="1" vertex="1">
          <mxGeometry x="75" y="807" width="60" height="35" as="geometry" />
        </mxCell>
        <mxCell id="X78c8GKSbH_yiS5C05WD-66" value="" style="endArrow=classic;html=1;rounded=0;exitX=1;exitY=1;exitDx=0;exitDy=0;entryX=0.25;entryY=1;entryDx=0;entryDy=0;" parent="1" source="X78c8GKSbH_yiS5C05WD-59" target="X78c8GKSbH_yiS5C05WD-62" edge="1">
          <mxGeometry width="50" height="50" relative="1" as="geometry">
            <mxPoint x="385.5" y="740" as="sourcePoint" />
            <mxPoint x="505.5" y="900" as="targetPoint" />
            <Array as="points">
              <mxPoint x="465.5" y="890" />
              <mxPoint x="660" y="890" />
            </Array>
          </mxGeometry>
        </mxCell>
        <mxCell id="X78c8GKSbH_yiS5C05WD-69" value="data&lt;br&gt;buffer" style="rounded=0;whiteSpace=wrap;html=1;" parent="1" vertex="1">
          <mxGeometry x="285.5" y="950" width="60" height="35" as="geometry" />
        </mxCell>
        <mxCell id="X78c8GKSbH_yiS5C05WD-70" value="buffer&lt;br&gt;size" style="rounded=0;whiteSpace=wrap;html=1;" parent="1" vertex="1">
          <mxGeometry x="345.5" y="950" width="60" height="35" as="geometry" />
        </mxCell>
        <mxCell id="X78c8GKSbH_yiS5C05WD-71" value="message&lt;br&gt;queue" style="rounded=0;whiteSpace=wrap;html=1;" parent="1" vertex="1">
          <mxGeometry x="225.5" y="950" width="60" height="35" as="geometry" />
        </mxCell>
        <mxCell id="X78c8GKSbH_yiS5C05WD-72" value="" style="rounded=0;whiteSpace=wrap;html=1;dashed=1;dashPattern=12 12;" parent="1" vertex="1">
          <mxGeometry x="405.5" y="950" width="60" height="35" as="geometry" />
        </mxCell>
        <mxCell id="X78c8GKSbH_yiS5C05WD-73" value="" style="rounded=0;whiteSpace=wrap;html=1;dashed=1;dashPattern=12 12;" parent="1" vertex="1">
          <mxGeometry x="465.5" y="950" width="60" height="35" as="geometry" />
        </mxCell>
        <mxCell id="X78c8GKSbH_yiS5C05WD-74" value="" style="rounded=0;whiteSpace=wrap;html=1;dashed=1;dashPattern=12 12;" parent="1" vertex="1">
          <mxGeometry x="15" y="950" width="60" height="35" as="geometry" />
        </mxCell>
        <mxCell id="X78c8GKSbH_yiS5C05WD-75" value="" style="rounded=0;whiteSpace=wrap;html=1;dashed=1;dashPattern=12 12;" parent="1" vertex="1">
          <mxGeometry x="75" y="950" width="60" height="35" as="geometry" />
        </mxCell>
        <mxCell id="X78c8GKSbH_yiS5C05WD-76" value="" style="endArrow=classic;html=1;rounded=0;exitX=0.5;exitY=1;exitDx=0;exitDy=0;entryX=0;entryY=1;entryDx=0;entryDy=0;" parent="1" source="X78c8GKSbH_yiS5C05WD-75" target="X78c8GKSbH_yiS5C05WD-70" edge="1">
          <mxGeometry width="50" height="50" relative="1" as="geometry">
            <mxPoint x="385.5" y="870" as="sourcePoint" />
            <mxPoint x="275.5" y="1030" as="targetPoint" />
            <Array as="points">
              <mxPoint x="105" y="1030" />
              <mxPoint x="345.5" y="1030" />
            </Array>
          </mxGeometry>
        </mxCell>
        <mxCell id="X78c8GKSbH_yiS5C05WD-77" value="" style="endArrow=classic;html=1;rounded=0;" parent="1" edge="1">
          <mxGeometry width="50" height="50" relative="1" as="geometry">
            <mxPoint x="-64.25" y="1070" as="sourcePoint" />
            <mxPoint x="705" y="1070" as="targetPoint" />
          </mxGeometry>
        </mxCell>
        <mxCell id="X78c8GKSbH_yiS5C05WD-78" value="you may read 1 more buffer" style="edgeLabel;html=1;align=center;verticalAlign=middle;resizable=0;points=[];" parent="X78c8GKSbH_yiS5C05WD-77" vertex="1" connectable="0">
          <mxGeometry x="-0.023" y="1" relative="1" as="geometry">
            <mxPoint as="offset" />
          </mxGeometry>
        </mxCell>
        <mxCell id="X78c8GKSbH_yiS5C05WD-79" value="" style="endArrow=none;html=1;rounded=0;" parent="1" edge="1">
          <mxGeometry width="50" height="50" relative="1" as="geometry">
            <mxPoint y="920" as="sourcePoint" />
            <mxPoint x="150" y="920" as="targetPoint" />
          </mxGeometry>
        </mxCell>
        <mxCell id="X78c8GKSbH_yiS5C05WD-80" value="writing" style="edgeLabel;html=1;align=center;verticalAlign=middle;resizable=0;points=[];" parent="X78c8GKSbH_yiS5C05WD-79" vertex="1" connectable="0">
          <mxGeometry x="0.08" relative="1" as="geometry">
            <mxPoint as="offset" />
          </mxGeometry>
        </mxCell>
        <mxCell id="X78c8GKSbH_yiS5C05WD-83" value="" style="endArrow=none;html=1;rounded=0;" parent="1" edge="1">
          <mxGeometry width="50" height="50" relative="1" as="geometry">
            <mxPoint x="827.25" y="1630" as="sourcePoint" />
            <mxPoint x="570" y="1630" as="targetPoint" />
          </mxGeometry>
        </mxCell>
        <mxCell id="X78c8GKSbH_yiS5C05WD-84" value="I have read 0 bytes, I gonna stop" style="edgeLabel;html=1;align=center;verticalAlign=middle;resizable=0;points=[];" parent="X78c8GKSbH_yiS5C05WD-83" vertex="1" connectable="0">
          <mxGeometry x="0.2168" y="-2" relative="1" as="geometry">
            <mxPoint x="30" y="2" as="offset" />
          </mxGeometry>
        </mxCell>
        <mxCell id="X78c8GKSbH_yiS5C05WD-85" value="" style="endArrow=none;html=1;rounded=0;" parent="1" edge="1">
          <mxGeometry width="50" height="50" relative="1" as="geometry">
            <mxPoint x="617.75" y="920" as="sourcePoint" />
            <mxPoint x="792.25" y="920" as="targetPoint" />
          </mxGeometry>
        </mxCell>
        <mxCell id="X78c8GKSbH_yiS5C05WD-86" value="reading" style="edgeLabel;html=1;align=center;verticalAlign=middle;resizable=0;points=[];" parent="X78c8GKSbH_yiS5C05WD-85" vertex="1" connectable="0">
          <mxGeometry x="0.0201" y="2" relative="1" as="geometry">
            <mxPoint as="offset" />
          </mxGeometry>
        </mxCell>
        <mxCell id="X78c8GKSbH_yiS5C05WD-87" value="" style="rounded=0;whiteSpace=wrap;html=1;dashed=1;dashPattern=12 12;" parent="1" vertex="1">
          <mxGeometry x="645" y="1460" width="60" height="35" as="geometry" />
        </mxCell>
        <mxCell id="X78c8GKSbH_yiS5C05WD-88" value="" style="rounded=0;whiteSpace=wrap;html=1;dashed=1;dashPattern=12 12;" parent="1" vertex="1">
          <mxGeometry x="705" y="1460" width="60" height="35" as="geometry" />
        </mxCell>
        <mxCell id="X78c8GKSbH_yiS5C05WD-89" value="data&lt;br&gt;buffer" style="rounded=0;whiteSpace=wrap;html=1;" parent="1" vertex="1">
          <mxGeometry x="290" y="1460" width="60" height="35" as="geometry" />
        </mxCell>
        <mxCell id="X78c8GKSbH_yiS5C05WD-90" value="buffer&lt;br&gt;size = 0" style="rounded=0;whiteSpace=wrap;html=1;" parent="1" vertex="1">
          <mxGeometry x="350" y="1460" width="60" height="35" as="geometry" />
        </mxCell>
        <mxCell id="X78c8GKSbH_yiS5C05WD-91" value="message&lt;br&gt;queue" style="rounded=0;whiteSpace=wrap;html=1;" parent="1" vertex="1">
          <mxGeometry x="230" y="1460" width="60" height="35" as="geometry" />
        </mxCell>
        <mxCell id="X78c8GKSbH_yiS5C05WD-92" value="data&lt;br&gt;buffer" style="rounded=0;whiteSpace=wrap;html=1;" parent="1" vertex="1">
          <mxGeometry x="410" y="1460" width="60" height="35" as="geometry" />
        </mxCell>
        <mxCell id="X78c8GKSbH_yiS5C05WD-93" value="buffer&lt;div&gt;size&lt;/div&gt;" style="rounded=0;whiteSpace=wrap;html=1;" parent="1" vertex="1">
          <mxGeometry x="470" y="1460" width="60" height="35" as="geometry" />
        </mxCell>
        <mxCell id="X78c8GKSbH_yiS5C05WD-94" value="" style="endArrow=classic;html=1;rounded=0;exitX=0.5;exitY=1;exitDx=0;exitDy=0;entryX=1;entryY=1;entryDx=0;entryDy=0;" parent="1" source="X78c8GKSbH_yiS5C05WD-87" target="X78c8GKSbH_yiS5C05WD-89" edge="1">
          <mxGeometry width="50" height="50" relative="1" as="geometry">
            <mxPoint x="390" y="1280" as="sourcePoint" />
            <mxPoint x="440" y="1230" as="targetPoint" />
            <Array as="points">
              <mxPoint x="675" y="1550" />
              <mxPoint x="350" y="1550" />
            </Array>
          </mxGeometry>
        </mxCell>
        <mxCell id="X78c8GKSbH_yiS5C05WD-96" value="" style="endArrow=none;html=1;rounded=0;" parent="1" edge="1">
          <mxGeometry width="50" height="50" relative="1" as="geometry">
            <mxPoint x="617.75" y="1690" as="sourcePoint" />
            <mxPoint x="792.25" y="1690" as="targetPoint" />
          </mxGeometry>
        </mxCell>
        <mxCell id="X78c8GKSbH_yiS5C05WD-97" value="stop" style="edgeLabel;html=1;align=center;verticalAlign=middle;resizable=0;points=[];" parent="X78c8GKSbH_yiS5C05WD-96" vertex="1" connectable="0">
          <mxGeometry x="0.0201" y="2" relative="1" as="geometry">
            <mxPoint as="offset" />
          </mxGeometry>
        </mxCell>
        <mxCell id="X78c8GKSbH_yiS5C05WD-98" value="" style="endArrow=classic;html=1;rounded=0;" parent="1" edge="1">
          <mxGeometry width="50" height="50" relative="1" as="geometry">
            <mxPoint x="845.75" y="1270" as="sourcePoint" />
            <mxPoint x="75" y="1270" as="targetPoint" />
          </mxGeometry>
        </mxCell>
        <mxCell id="X78c8GKSbH_yiS5C05WD-99" value="you may write 1 more buffer" style="edgeLabel;html=1;align=center;verticalAlign=middle;resizable=0;points=[];" parent="X78c8GKSbH_yiS5C05WD-98" vertex="1" connectable="0">
          <mxGeometry x="-0.1489" y="2" relative="1" as="geometry">
            <mxPoint as="offset" />
          </mxGeometry>
        </mxCell>
        <mxCell id="X78c8GKSbH_yiS5C05WD-105" value="" style="rounded=0;whiteSpace=wrap;html=1;dashed=1;dashPattern=12 12;" parent="1" vertex="1">
          <mxGeometry x="290" y="1650" width="60" height="35" as="geometry" />
        </mxCell>
        <mxCell id="X78c8GKSbH_yiS5C05WD-106" value="" style="rounded=0;whiteSpace=wrap;html=1;dashed=1;dashPattern=12 12;" parent="1" vertex="1">
          <mxGeometry x="350" y="1650" width="60" height="35" as="geometry" />
        </mxCell>
        <mxCell id="X78c8GKSbH_yiS5C05WD-107" value="process counter" style="rounded=0;whiteSpace=wrap;html=1;" parent="1" vertex="1">
          <mxGeometry x="230" y="1650" width="60" height="35" as="geometry" />
        </mxCell>
        <mxCell id="X78c8GKSbH_yiS5C05WD-108" value="data&lt;br&gt;buffer" style="rounded=0;whiteSpace=wrap;html=1;" parent="1" vertex="1">
          <mxGeometry x="410" y="1650" width="60" height="35" as="geometry" />
        </mxCell>
        <mxCell id="X78c8GKSbH_yiS5C05WD-109" value="buffer&lt;div&gt;size&lt;/div&gt;" style="rounded=0;whiteSpace=wrap;html=1;" parent="1" vertex="1">
          <mxGeometry x="470" y="1650" width="60" height="35" as="geometry" />
        </mxCell>
        <mxCell id="X78c8GKSbH_yiS5C05WD-110" value="data&lt;br&gt;buffer" style="rounded=0;whiteSpace=wrap;html=1;" parent="1" vertex="1">
          <mxGeometry x="15" y="1650" width="60" height="35" as="geometry" />
        </mxCell>
        <mxCell id="X78c8GKSbH_yiS5C05WD-111" value="buffer&lt;br&gt;size = 0" style="rounded=0;whiteSpace=wrap;html=1;" parent="1" vertex="1">
          <mxGeometry x="75" y="1650" width="60" height="35" as="geometry" />
        </mxCell>
        <mxCell id="X78c8GKSbH_yiS5C05WD-112" value="" style="endArrow=classic;html=1;rounded=0;exitX=0;exitY=1;exitDx=0;exitDy=0;entryX=0.5;entryY=1;entryDx=0;entryDy=0;" parent="1" source="X78c8GKSbH_yiS5C05WD-106" target="X78c8GKSbH_yiS5C05WD-111" edge="1">
          <mxGeometry width="50" height="50" relative="1" as="geometry">
            <mxPoint x="390" y="1470" as="sourcePoint" />
            <mxPoint x="330" y="1720" as="targetPoint" />
            <Array as="points">
              <mxPoint x="350" y="1740" />
              <mxPoint x="105" y="1740" />
            </Array>
          </mxGeometry>
        </mxCell>
        <mxCell id="X78c8GKSbH_yiS5C05WD-113" value="" style="endArrow=none;html=1;rounded=0;" parent="1" edge="1">
          <mxGeometry width="50" height="50" relative="1" as="geometry">
            <mxPoint x="203.63" y="1770" as="sourcePoint" />
            <mxPoint x="-53.620000000000005" y="1770" as="targetPoint" />
          </mxGeometry>
        </mxCell>
        <mxCell id="X78c8GKSbH_yiS5C05WD-114" value="I have got 0 bytes buffer, I gonna stop" style="edgeLabel;html=1;align=center;verticalAlign=middle;resizable=0;points=[];" parent="X78c8GKSbH_yiS5C05WD-113" vertex="1" connectable="0">
          <mxGeometry x="0.2168" y="-2" relative="1" as="geometry">
            <mxPoint x="30" y="2" as="offset" />
          </mxGeometry>
        </mxCell>
        <mxCell id="X78c8GKSbH_yiS5C05WD-115" value="" style="endArrow=none;html=1;rounded=0;" parent="1" edge="1">
          <mxGeometry width="50" height="50" relative="1" as="geometry">
            <mxPoint x="-12.25" y="1860" as="sourcePoint" />
            <mxPoint x="162.25" y="1860" as="targetPoint" />
          </mxGeometry>
        </mxCell>
        <mxCell id="X78c8GKSbH_yiS5C05WD-116" value="stop" style="edgeLabel;html=1;align=center;verticalAlign=middle;resizable=0;points=[];" parent="X78c8GKSbH_yiS5C05WD-115" vertex="1" connectable="0">
          <mxGeometry x="0.0201" y="2" relative="1" as="geometry">
            <mxPoint as="offset" />
          </mxGeometry>
        </mxCell>
        <mxCell id="X78c8GKSbH_yiS5C05WD-118" value="" style="endArrow=none;html=1;rounded=0;" parent="1" edge="1">
          <mxGeometry width="50" height="50" relative="1" as="geometry">
            <mxPoint x="610" y="400" as="sourcePoint" />
            <mxPoint x="784.5" y="400" as="targetPoint" />
          </mxGeometry>
        </mxCell>
        <mxCell id="X78c8GKSbH_yiS5C05WD-119" value="I can read 2 buffers" style="edgeLabel;html=1;align=center;verticalAlign=middle;resizable=0;points=[];" parent="X78c8GKSbH_yiS5C05WD-118" vertex="1" connectable="0">
          <mxGeometry x="0.0201" y="2" relative="1" as="geometry">
            <mxPoint as="offset" />
          </mxGeometry>
        </mxCell>
        <mxCell id="X78c8GKSbH_yiS5C05WD-120" value="" style="endArrow=none;html=1;rounded=0;" parent="1" edge="1">
          <mxGeometry width="50" height="50" relative="1" as="geometry">
            <mxPoint x="-12.25" y="400" as="sourcePoint" />
            <mxPoint x="162.25" y="400" as="targetPoint" />
          </mxGeometry>
        </mxCell>
        <mxCell id="X78c8GKSbH_yiS5C05WD-121" value="I can write 0 buffers" style="edgeLabel;html=1;align=center;verticalAlign=middle;resizable=0;points=[];" parent="X78c8GKSbH_yiS5C05WD-120" vertex="1" connectable="0">
          <mxGeometry x="0.0201" y="2" relative="1" as="geometry">
            <mxPoint as="offset" />
          </mxGeometry>
        </mxCell>
        <mxCell id="w8xs6WO1gdG0CTa5vJn_-1" value="thread&lt;br&gt;timedNotifier" style="shape=umlLifeline;perimeter=lifelinePerimeter;whiteSpace=wrap;html=1;container=1;dropTarget=0;collapsible=0;recursiveResize=0;outlineConnect=0;portConstraint=eastwest;newEdgeStyle={&quot;curved&quot;:0,&quot;rounded&quot;:0};participant=umlEntity;" parent="1" vertex="1">
          <mxGeometry x="-130" y="302.5" width="130" height="1617.5" as="geometry" />
        </mxCell>
        <mxCell id="w8xs6WO1gdG0CTa5vJn_-2" value="thread&lt;br&gt;writer" style="shape=umlLifeline;perimeter=lifelinePerimeter;whiteSpace=wrap;html=1;container=1;dropTarget=0;collapsible=0;recursiveResize=0;outlineConnect=0;portConstraint=eastwest;newEdgeStyle={&quot;curved&quot;:0,&quot;rounded&quot;:0};participant=umlEntity;" parent="1" vertex="1">
          <mxGeometry x="10" y="302.5" width="130" height="1617.5" as="geometry" />
        </mxCell>
        <mxCell id="w8xs6WO1gdG0CTa5vJn_-3" value="thread&lt;br&gt;reader" style="shape=umlLifeline;perimeter=lifelinePerimeter;whiteSpace=wrap;html=1;container=1;dropTarget=0;collapsible=0;recursiveResize=0;outlineConnect=0;portConstraint=eastwest;newEdgeStyle={&quot;curved&quot;:0,&quot;rounded&quot;:0};participant=umlEntity;" parent="1" vertex="1">
          <mxGeometry x="640" y="302.5" width="130" height="1447.5" as="geometry" />
        </mxCell>
        <mxCell id="w8xs6WO1gdG0CTa5vJn_-4" value="thread&lt;br&gt;timedNotifier" style="shape=umlLifeline;perimeter=lifelinePerimeter;whiteSpace=wrap;html=1;container=1;dropTarget=0;collapsible=0;recursiveResize=0;outlineConnect=0;portConstraint=eastwest;newEdgeStyle={&quot;curved&quot;:0,&quot;rounded&quot;:0};participant=umlEntity;" parent="1" vertex="1">
          <mxGeometry x="780" y="302.5" width="130" height="1437.5" as="geometry" />
        </mxCell>
        <mxCell id="w8xs6WO1gdG0CTa5vJn_-5" value="" style="endArrow=classic;html=1;rounded=0;" parent="1" edge="1">
          <mxGeometry width="50" height="50" relative="1" as="geometry">
            <mxPoint x="705" y="690" as="sourcePoint" />
            <mxPoint x="845" y="690" as="targetPoint" />
          </mxGeometry>
        </mxCell>
        <mxCell id="w8xs6WO1gdG0CTa5vJn_-6" value="I finished with buffer" style="edgeLabel;html=1;align=center;verticalAlign=middle;resizable=0;points=[];" parent="w8xs6WO1gdG0CTa5vJn_-5" vertex="1" connectable="0">
          <mxGeometry x="0.2429" y="1" relative="1" as="geometry">
            <mxPoint x="-17" y="1" as="offset" />
          </mxGeometry>
        </mxCell>
        <mxCell id="w8xs6WO1gdG0CTa5vJn_-7" value="" style="endArrow=classic;html=1;rounded=0;" parent="1" edge="1">
          <mxGeometry width="50" height="50" relative="1" as="geometry">
            <mxPoint x="75" y="1050" as="sourcePoint" />
            <mxPoint x="-65" y="1050" as="targetPoint" />
          </mxGeometry>
        </mxCell>
        <mxCell id="w8xs6WO1gdG0CTa5vJn_-8" value="I finished with buffer" style="edgeLabel;html=1;align=center;verticalAlign=middle;resizable=0;points=[];" parent="w8xs6WO1gdG0CTa5vJn_-7" vertex="1" connectable="0">
          <mxGeometry x="-0.2429" y="3" relative="1" as="geometry">
            <mxPoint x="-17" y="-3" as="offset" />
          </mxGeometry>
        </mxCell>
        <mxCell id="w8xs6WO1gdG0CTa5vJn_-9" value="" style="endArrow=classic;html=1;rounded=0;entryX=0.5;entryY=0.65;entryDx=0;entryDy=0;entryPerimeter=0;" parent="1" edge="1">
          <mxGeometry width="50" height="50" relative="1" as="geometry">
            <mxPoint x="844.5" y="1110.755" as="sourcePoint" />
            <mxPoint x="75" y="1110.755" as="targetPoint" />
            <Array as="points" />
          </mxGeometry>
        </mxCell>
        <mxCell id="w8xs6WO1gdG0CTa5vJn_-10" value="I havan&#39;t read a buffer, but I am stiil alive (ping)" style="edgeLabel;html=1;align=center;verticalAlign=middle;resizable=0;points=[];" parent="w8xs6WO1gdG0CTa5vJn_-9" vertex="1" connectable="0">
          <mxGeometry x="-0.0058" y="-2" relative="1" as="geometry">
            <mxPoint x="1" as="offset" />
          </mxGeometry>
        </mxCell>
        <mxCell id="w8xs6WO1gdG0CTa5vJn_-11" value="" style="rounded=0;whiteSpace=wrap;html=1;dashed=1;dashPattern=12 12;" parent="1" vertex="1">
          <mxGeometry x="290" y="1300" width="60" height="35" as="geometry" />
        </mxCell>
        <mxCell id="w8xs6WO1gdG0CTa5vJn_-12" value="" style="rounded=0;whiteSpace=wrap;html=1;dashed=1;dashPattern=12 12;" parent="1" vertex="1">
          <mxGeometry x="350" y="1300" width="60" height="35" as="geometry" />
        </mxCell>
        <mxCell id="w8xs6WO1gdG0CTa5vJn_-13" value="message&lt;br&gt;queue" style="rounded=0;whiteSpace=wrap;html=1;" parent="1" vertex="1">
          <mxGeometry x="230" y="1300" width="60" height="35" as="geometry" />
        </mxCell>
        <mxCell id="w8xs6WO1gdG0CTa5vJn_-14" value="" style="rounded=0;whiteSpace=wrap;html=1;dashed=1;dashPattern=12 12;" parent="1" vertex="1">
          <mxGeometry x="410" y="1300" width="60" height="35" as="geometry" />
        </mxCell>
        <mxCell id="w8xs6WO1gdG0CTa5vJn_-15" value="" style="rounded=0;whiteSpace=wrap;html=1;dashed=1;dashPattern=12 12;" parent="1" vertex="1">
          <mxGeometry x="470" y="1300" width="60" height="35" as="geometry" />
        </mxCell>
        <mxCell id="w8xs6WO1gdG0CTa5vJn_-16" value="" style="endArrow=classic;html=1;rounded=0;exitX=0.5;exitY=1;exitDx=0;exitDy=0;entryX=0.5;entryY=1;entryDx=0;entryDy=0;" parent="1" target="w8xs6WO1gdG0CTa5vJn_-20" edge="1">
          <mxGeometry width="50" height="50" relative="1" as="geometry">
            <mxPoint x="350" y="1335" as="sourcePoint" />
            <mxPoint x="591" y="1335" as="targetPoint" />
            <Array as="points">
              <mxPoint x="350" y="1380" />
              <mxPoint x="675" y="1380" />
            </Array>
          </mxGeometry>
        </mxCell>
        <mxCell id="w8xs6WO1gdG0CTa5vJn_-17" value="" style="endArrow=classic;html=1;rounded=0;exitX=0;exitY=1;exitDx=0;exitDy=0;entryX=0.5;entryY=1;entryDx=0;entryDy=0;" parent="1" target="w8xs6WO1gdG0CTa5vJn_-19" edge="1">
          <mxGeometry width="50" height="50" relative="1" as="geometry">
            <mxPoint x="470" y="1335" as="sourcePoint" />
            <mxPoint x="229" y="1335" as="targetPoint" />
            <Array as="points">
              <mxPoint x="469.5" y="1383" />
              <mxPoint x="105" y="1383" />
            </Array>
          </mxGeometry>
        </mxCell>
        <mxCell id="w8xs6WO1gdG0CTa5vJn_-18" value="data&lt;br&gt;buffer" style="rounded=0;whiteSpace=wrap;html=1;" parent="1" vertex="1">
          <mxGeometry x="15" y="1300" width="60" height="35" as="geometry" />
        </mxCell>
        <mxCell id="w8xs6WO1gdG0CTa5vJn_-19" value="buffer&lt;br&gt;size" style="rounded=0;whiteSpace=wrap;html=1;" parent="1" vertex="1">
          <mxGeometry x="75" y="1300" width="60" height="35" as="geometry" />
        </mxCell>
        <mxCell id="w8xs6WO1gdG0CTa5vJn_-20" value="data&lt;br&gt;buffer" style="rounded=0;whiteSpace=wrap;html=1;" parent="1" vertex="1">
          <mxGeometry x="645" y="1300" width="60" height="35" as="geometry" />
        </mxCell>
        <mxCell id="w8xs6WO1gdG0CTa5vJn_-21" value="buffer&lt;br&gt;size" style="rounded=0;whiteSpace=wrap;html=1;" parent="1" vertex="1">
          <mxGeometry x="705" y="1300" width="60" height="35" as="geometry" />
        </mxCell>
        <mxCell id="w8xs6WO1gdG0CTa5vJn_-22" value="" style="endArrow=none;html=1;rounded=0;" parent="1" edge="1">
          <mxGeometry width="50" height="50" relative="1" as="geometry">
            <mxPoint x="615" y="1420" as="sourcePoint" />
            <mxPoint x="789.5" y="1420" as="targetPoint" />
          </mxGeometry>
        </mxCell>
        <mxCell id="w8xs6WO1gdG0CTa5vJn_-23" value="reading" style="edgeLabel;html=1;align=center;verticalAlign=middle;resizable=0;points=[];" parent="w8xs6WO1gdG0CTa5vJn_-22" vertex="1" connectable="0">
          <mxGeometry x="0.0201" y="2" relative="1" as="geometry">
            <mxPoint as="offset" />
          </mxGeometry>
        </mxCell>
        <mxCell id="w8xs6WO1gdG0CTa5vJn_-24" value="" style="endArrow=classic;html=1;rounded=0;" parent="1" edge="1">
          <mxGeometry width="50" height="50" relative="1" as="geometry">
            <mxPoint x="845.25" y="1590" as="sourcePoint" />
            <mxPoint x="75" y="1590" as="targetPoint" />
          </mxGeometry>
        </mxCell>
        <mxCell id="w8xs6WO1gdG0CTa5vJn_-25" value="you may write 1 more buffer" style="edgeLabel;html=1;align=center;verticalAlign=middle;resizable=0;points=[];" parent="w8xs6WO1gdG0CTa5vJn_-24" vertex="1" connectable="0">
          <mxGeometry x="-0.1489" y="2" relative="1" as="geometry">
            <mxPoint as="offset" />
          </mxGeometry>
        </mxCell>
        <mxCell id="w8xs6WO1gdG0CTa5vJn_-26" value="" style="endArrow=none;html=1;rounded=0;" parent="1" edge="1">
          <mxGeometry width="50" height="50" relative="1" as="geometry">
            <mxPoint x="-10" y="1400" as="sourcePoint" />
            <mxPoint x="140" y="1400" as="targetPoint" />
          </mxGeometry>
        </mxCell>
        <mxCell id="w8xs6WO1gdG0CTa5vJn_-27" value="writing" style="edgeLabel;html=1;align=center;verticalAlign=middle;resizable=0;points=[];" parent="w8xs6WO1gdG0CTa5vJn_-26" vertex="1" connectable="0">
          <mxGeometry x="0.08" relative="1" as="geometry">
            <mxPoint as="offset" />
          </mxGeometry>
        </mxCell>
        <mxCell id="w8xs6WO1gdG0CTa5vJn_-28" value="" style="endArrow=classic;html=1;rounded=0;" parent="1" edge="1">
          <mxGeometry width="50" height="50" relative="1" as="geometry">
            <mxPoint x="75" y="1440" as="sourcePoint" />
            <mxPoint x="-65" y="1440" as="targetPoint" />
          </mxGeometry>
        </mxCell>
        <mxCell id="w8xs6WO1gdG0CTa5vJn_-29" value="I finished with buffer" style="edgeLabel;html=1;align=center;verticalAlign=middle;resizable=0;points=[];" parent="w8xs6WO1gdG0CTa5vJn_-28" vertex="1" connectable="0">
          <mxGeometry x="-0.2429" y="3" relative="1" as="geometry">
            <mxPoint x="-17" y="-3" as="offset" />
          </mxGeometry>
        </mxCell>
        <mxCell id="w8xs6WO1gdG0CTa5vJn_-30" value="" style="rounded=0;whiteSpace=wrap;html=1;dashed=1;dashPattern=12 12;" parent="1" vertex="1">
          <mxGeometry x="645" y="1140" width="60" height="35" as="geometry" />
        </mxCell>
        <mxCell id="w8xs6WO1gdG0CTa5vJn_-31" value="" style="rounded=0;whiteSpace=wrap;html=1;dashed=1;dashPattern=12 12;" parent="1" vertex="1">
          <mxGeometry x="705" y="1140" width="60" height="35" as="geometry" />
        </mxCell>
        <mxCell id="w8xs6WO1gdG0CTa5vJn_-32" value="data&lt;br&gt;buffer" style="rounded=0;whiteSpace=wrap;html=1;" parent="1" vertex="1">
          <mxGeometry x="290" y="1140" width="60" height="35" as="geometry" />
        </mxCell>
        <mxCell id="w8xs6WO1gdG0CTa5vJn_-33" value="buffer&lt;br&gt;size" style="rounded=0;whiteSpace=wrap;html=1;" parent="1" vertex="1">
          <mxGeometry x="350" y="1140" width="60" height="35" as="geometry" />
        </mxCell>
        <mxCell id="w8xs6WO1gdG0CTa5vJn_-34" value="message&lt;br&gt;queue" style="rounded=0;whiteSpace=wrap;html=1;" parent="1" vertex="1">
          <mxGeometry x="230" y="1140" width="60" height="35" as="geometry" />
        </mxCell>
        <mxCell id="w8xs6WO1gdG0CTa5vJn_-35" value="data&lt;br&gt;buffer" style="rounded=0;whiteSpace=wrap;html=1;" parent="1" vertex="1">
          <mxGeometry x="410" y="1140" width="60" height="35" as="geometry" />
        </mxCell>
        <mxCell id="w8xs6WO1gdG0CTa5vJn_-36" value="buffer&lt;div&gt;size&lt;/div&gt;" style="rounded=0;whiteSpace=wrap;html=1;" parent="1" vertex="1">
          <mxGeometry x="470" y="1140" width="60" height="35" as="geometry" />
        </mxCell>
        <mxCell id="w8xs6WO1gdG0CTa5vJn_-37" value="" style="endArrow=classic;html=1;rounded=0;exitX=0.5;exitY=1;exitDx=0;exitDy=0;entryX=0;entryY=1;entryDx=0;entryDy=0;" parent="1" source="w8xs6WO1gdG0CTa5vJn_-30" target="w8xs6WO1gdG0CTa5vJn_-36" edge="1">
          <mxGeometry width="50" height="50" relative="1" as="geometry">
            <mxPoint x="605" y="1275" as="sourcePoint" />
            <mxPoint x="340" y="1210" as="targetPoint" />
            <Array as="points">
              <mxPoint x="675" y="1210" />
              <mxPoint x="470" y="1210" />
            </Array>
          </mxGeometry>
        </mxCell>
        <mxCell id="w8xs6WO1gdG0CTa5vJn_-38" value="" style="endArrow=classic;html=1;rounded=0;" parent="1" edge="1">
          <mxGeometry width="50" height="50" relative="1" as="geometry">
            <mxPoint x="705" y="1200" as="sourcePoint" />
            <mxPoint x="845" y="1200" as="targetPoint" />
          </mxGeometry>
        </mxCell>
        <mxCell id="w8xs6WO1gdG0CTa5vJn_-39" value="I finished with buffer" style="edgeLabel;html=1;align=center;verticalAlign=middle;resizable=0;points=[];" parent="w8xs6WO1gdG0CTa5vJn_-38" vertex="1" connectable="0">
          <mxGeometry x="0.2429" y="1" relative="1" as="geometry">
            <mxPoint x="-17" y="1" as="offset" />
          </mxGeometry>
        </mxCell>
        <mxCell id="w8xs6WO1gdG0CTa5vJn_-40" value="" style="rounded=0;whiteSpace=wrap;html=1;dashed=1;dashPattern=12 12;" parent="1" vertex="1">
          <mxGeometry x="15" y="1460" width="60" height="35" as="geometry" />
        </mxCell>
        <mxCell id="w8xs6WO1gdG0CTa5vJn_-41" value="" style="rounded=0;whiteSpace=wrap;html=1;dashed=1;dashPattern=12 12;" parent="1" vertex="1">
          <mxGeometry x="75" y="1460" width="60" height="35" as="geometry" />
        </mxCell>
        <mxCell id="w8xs6WO1gdG0CTa5vJn_-42" value="" style="endArrow=classic;html=1;rounded=0;exitX=0.5;exitY=1;exitDx=0;exitDy=0;entryX=0;entryY=1;entryDx=0;entryDy=0;" parent="1" source="w8xs6WO1gdG0CTa5vJn_-41" target="X78c8GKSbH_yiS5C05WD-93" edge="1">
          <mxGeometry width="50" height="50" relative="1" as="geometry">
            <mxPoint x="135" y="1495" as="sourcePoint" />
            <mxPoint x="376" y="1495" as="targetPoint" />
            <Array as="points">
              <mxPoint x="105" y="1540" />
              <mxPoint x="470" y="1540" />
            </Array>
          </mxGeometry>
        </mxCell>
        <mxCell id="w8xs6WO1gdG0CTa5vJn_-43" value="" style="endArrow=classic;html=1;rounded=0;" parent="1" edge="1">
          <mxGeometry width="50" height="50" relative="1" as="geometry">
            <mxPoint x="-64.62" y="1560" as="sourcePoint" />
            <mxPoint x="704.63" y="1560" as="targetPoint" />
          </mxGeometry>
        </mxCell>
        <mxCell id="w8xs6WO1gdG0CTa5vJn_-44" value="you may read 1 more buffer" style="edgeLabel;html=1;align=center;verticalAlign=middle;resizable=0;points=[];" parent="w8xs6WO1gdG0CTa5vJn_-43" vertex="1" connectable="0">
          <mxGeometry x="-0.023" y="1" relative="1" as="geometry">
            <mxPoint as="offset" />
          </mxGeometry>
        </mxCell>
        <mxCell id="w8xs6WO1gdG0CTa5vJn_-45" value="" style="endArrow=classic;html=1;rounded=0;" parent="1" edge="1">
          <mxGeometry width="50" height="50" relative="1" as="geometry">
            <mxPoint x="705" y="1570" as="sourcePoint" />
            <mxPoint x="845" y="1570" as="targetPoint" />
          </mxGeometry>
        </mxCell>
        <mxCell id="w8xs6WO1gdG0CTa5vJn_-46" value="I finished with buffer&lt;br&gt;it was 0, you should stop" style="edgeLabel;html=1;align=center;verticalAlign=middle;resizable=0;points=[];" parent="w8xs6WO1gdG0CTa5vJn_-45" vertex="1" connectable="0">
          <mxGeometry x="0.2429" y="1" relative="1" as="geometry">
            <mxPoint x="-17" y="1" as="offset" />
          </mxGeometry>
        </mxCell>
        <mxCell id="w8xs6WO1gdG0CTa5vJn_-47" value="" style="endArrow=none;html=1;rounded=0;" parent="1" edge="1">
          <mxGeometry width="50" height="50" relative="1" as="geometry">
            <mxPoint x="757.75" y="1610" as="sourcePoint" />
            <mxPoint x="932.25" y="1610" as="targetPoint" />
          </mxGeometry>
        </mxCell>
        <mxCell id="w8xs6WO1gdG0CTa5vJn_-48" value="stop" style="edgeLabel;html=1;align=center;verticalAlign=middle;resizable=0;points=[];" parent="w8xs6WO1gdG0CTa5vJn_-47" vertex="1" connectable="0">
          <mxGeometry x="0.0201" y="2" relative="1" as="geometry">
            <mxPoint as="offset" />
          </mxGeometry>
        </mxCell>
        <mxCell id="w8xs6WO1gdG0CTa5vJn_-49" value="" style="endArrow=classic;html=1;rounded=0;" parent="1" edge="1">
          <mxGeometry width="50" height="50" relative="1" as="geometry">
            <mxPoint x="75" y="1800" as="sourcePoint" />
            <mxPoint x="-65" y="1800" as="targetPoint" />
          </mxGeometry>
        </mxCell>
        <mxCell id="w8xs6WO1gdG0CTa5vJn_-50" value="I finished with buffer&lt;br&gt;it was 0, you shoud stop" style="edgeLabel;html=1;align=center;verticalAlign=middle;resizable=0;points=[];" parent="w8xs6WO1gdG0CTa5vJn_-49" vertex="1" connectable="0">
          <mxGeometry x="-0.2429" y="3" relative="1" as="geometry">
            <mxPoint x="-17" y="-3" as="offset" />
          </mxGeometry>
        </mxCell>
        <mxCell id="w8xs6WO1gdG0CTa5vJn_-51" value="" style="endArrow=none;html=1;rounded=0;" parent="1" edge="1">
          <mxGeometry width="50" height="50" relative="1" as="geometry">
            <mxPoint x="-152.25" y="1830" as="sourcePoint" />
            <mxPoint x="22.25" y="1830" as="targetPoint" />
          </mxGeometry>
        </mxCell>
        <mxCell id="w8xs6WO1gdG0CTa5vJn_-52" value="stop" style="edgeLabel;html=1;align=center;verticalAlign=middle;resizable=0;points=[];" parent="w8xs6WO1gdG0CTa5vJn_-51" vertex="1" connectable="0">
          <mxGeometry x="0.0201" y="2" relative="1" as="geometry">
            <mxPoint as="offset" />
          </mxGeometry>
        </mxCell>
        <mxCell id="37AlTuy4jyxTx8HZtSst-1" value="process 1" style="shape=umlLifeline;perimeter=lifelinePerimeter;whiteSpace=wrap;html=1;container=1;dropTarget=0;collapsible=0;recursiveResize=0;outlineConnect=0;portConstraint=eastwest;newEdgeStyle={&quot;curved&quot;:0,&quot;rounded&quot;:0};participant=umlEntity;" vertex="1" parent="1">
          <mxGeometry x="70" y="-510" width="120" height="420" as="geometry" />
        </mxCell>
        <mxCell id="37AlTuy4jyxTx8HZtSst-2" value="process 2" style="shape=umlLifeline;perimeter=lifelinePerimeter;whiteSpace=wrap;html=1;container=1;dropTarget=0;collapsible=0;recursiveResize=0;outlineConnect=0;portConstraint=eastwest;newEdgeStyle={&quot;curved&quot;:0,&quot;rounded&quot;:0};participant=umlEntity;" vertex="1" parent="1">
          <mxGeometry x="560" y="-520" width="120" height="420" as="geometry" />
        </mxCell>
        <mxCell id="37AlTuy4jyxTx8HZtSst-3" value="Shared memory object" style="rounded=0;whiteSpace=wrap;html=1;" vertex="1" parent="1">
          <mxGeometry x="290" y="-460" width="160" height="30" as="geometry" />
        </mxCell>
        <mxCell id="37AlTuy4jyxTx8HZtSst-4" value="" style="endArrow=classic;html=1;rounded=0;entryX=0;entryY=0;entryDx=0;entryDy=0;" edge="1" parent="1" source="37AlTuy4jyxTx8HZtSst-1" target="37AlTuy4jyxTx8HZtSst-3">
          <mxGeometry width="50" height="50" relative="1" as="geometry">
            <mxPoint x="189.5" y="-460" as="sourcePoint" />
            <mxPoint x="334" y="-460" as="targetPoint" />
            <Array as="points">
              <mxPoint x="250" y="-460" />
            </Array>
          </mxGeometry>
        </mxCell>
        <mxCell id="37AlTuy4jyxTx8HZtSst-5" value="Have I created?" style="edgeLabel;html=1;align=center;verticalAlign=middle;resizable=0;points=[];" vertex="1" connectable="0" parent="37AlTuy4jyxTx8HZtSst-4">
          <mxGeometry x="-0.1966" relative="1" as="geometry">
            <mxPoint x="1" as="offset" />
          </mxGeometry>
        </mxCell>
        <mxCell id="37AlTuy4jyxTx8HZtSst-6" value="" style="endArrow=classic;html=1;rounded=0;entryX=1;entryY=0;entryDx=0;entryDy=0;" edge="1" parent="1" source="37AlTuy4jyxTx8HZtSst-2" target="37AlTuy4jyxTx8HZtSst-3">
          <mxGeometry width="50" height="50" relative="1" as="geometry">
            <mxPoint x="415.5" y="-360" as="sourcePoint" />
            <mxPoint x="560" y="-360" as="targetPoint" />
            <Array as="points">
              <mxPoint x="530" y="-460" />
            </Array>
          </mxGeometry>
        </mxCell>
        <mxCell id="37AlTuy4jyxTx8HZtSst-7" value="Have I created?" style="edgeLabel;html=1;align=center;verticalAlign=middle;resizable=0;points=[];" vertex="1" connectable="0" parent="37AlTuy4jyxTx8HZtSst-6">
          <mxGeometry x="-0.1966" relative="1" as="geometry">
            <mxPoint x="1" as="offset" />
          </mxGeometry>
        </mxCell>
        <mxCell id="37AlTuy4jyxTx8HZtSst-8" value="" style="endArrow=classic;html=1;rounded=0;exitX=1;exitY=1;exitDx=0;exitDy=0;" edge="1" parent="1" source="37AlTuy4jyxTx8HZtSst-3" target="37AlTuy4jyxTx8HZtSst-2">
          <mxGeometry width="50" height="50" relative="1" as="geometry">
            <mxPoint x="350" y="-380" as="sourcePoint" />
            <mxPoint x="595" y="-290" as="targetPoint" />
            <Array as="points">
              <mxPoint x="550" y="-430" />
            </Array>
          </mxGeometry>
        </mxCell>
        <mxCell id="37AlTuy4jyxTx8HZtSst-9" value="Yes, you are reader" style="edgeLabel;html=1;align=center;verticalAlign=middle;resizable=0;points=[];" vertex="1" connectable="0" parent="37AlTuy4jyxTx8HZtSst-8">
          <mxGeometry x="0.3527" y="-2" relative="1" as="geometry">
            <mxPoint x="-24" y="-2" as="offset" />
          </mxGeometry>
        </mxCell>
        <mxCell id="37AlTuy4jyxTx8HZtSst-10" value="" style="endArrow=classic;html=1;rounded=0;exitX=0;exitY=1;exitDx=0;exitDy=0;" edge="1" parent="1" source="37AlTuy4jyxTx8HZtSst-3" target="37AlTuy4jyxTx8HZtSst-1">
          <mxGeometry width="50" height="50" relative="1" as="geometry">
            <mxPoint x="335" y="-390" as="sourcePoint" />
            <mxPoint x="110" y="-310" as="targetPoint" />
            <Array as="points">
              <mxPoint x="290" y="-430" />
            </Array>
          </mxGeometry>
        </mxCell>
        <mxCell id="37AlTuy4jyxTx8HZtSst-11" value="No, may be you are writer" style="edgeLabel;html=1;align=center;verticalAlign=middle;resizable=0;points=[];" vertex="1" connectable="0" parent="37AlTuy4jyxTx8HZtSst-10">
          <mxGeometry x="0.187" y="1" relative="1" as="geometry">
            <mxPoint x="13" y="-1" as="offset" />
          </mxGeometry>
        </mxCell>
        <mxCell id="37AlTuy4jyxTx8HZtSst-12" value="writer&lt;br&gt;semaphore" style="rounded=0;whiteSpace=wrap;html=1;" vertex="1" parent="1">
          <mxGeometry x="270" y="-390" width="70" height="30" as="geometry" />
        </mxCell>
        <mxCell id="37AlTuy4jyxTx8HZtSst-13" value="" style="endArrow=classic;html=1;rounded=0;entryX=0;entryY=0.25;entryDx=0;entryDy=0;" edge="1" parent="1" source="37AlTuy4jyxTx8HZtSst-1" target="37AlTuy4jyxTx8HZtSst-12">
          <mxGeometry width="50" height="50" relative="1" as="geometry">
            <mxPoint x="120" y="-382" as="sourcePoint" />
            <mxPoint x="242.5" y="-380" as="targetPoint" />
          </mxGeometry>
        </mxCell>
        <mxCell id="37AlTuy4jyxTx8HZtSst-14" value="Have I created?" style="edgeLabel;html=1;align=center;verticalAlign=middle;resizable=0;points=[];" vertex="1" connectable="0" parent="37AlTuy4jyxTx8HZtSst-13">
          <mxGeometry x="0.0837" relative="1" as="geometry">
            <mxPoint as="offset" />
          </mxGeometry>
        </mxCell>
        <mxCell id="37AlTuy4jyxTx8HZtSst-15" value="" style="endArrow=classic;html=1;rounded=0;exitX=0;exitY=1;exitDx=0;exitDy=0;" edge="1" parent="1" source="37AlTuy4jyxTx8HZtSst-12" target="37AlTuy4jyxTx8HZtSst-1">
          <mxGeometry width="50" height="50" relative="1" as="geometry">
            <mxPoint x="255.3300000000002" y="-360" as="sourcePoint" />
            <mxPoint x="120" y="-360" as="targetPoint" />
          </mxGeometry>
        </mxCell>
        <mxCell id="37AlTuy4jyxTx8HZtSst-16" value="yes, you are writer" style="edgeLabel;html=1;align=center;verticalAlign=middle;resizable=0;points=[];" vertex="1" connectable="0" parent="37AlTuy4jyxTx8HZtSst-15">
          <mxGeometry x="-0.133" y="1" relative="1" as="geometry">
            <mxPoint as="offset" />
          </mxGeometry>
        </mxCell>
        <mxCell id="37AlTuy4jyxTx8HZtSst-17" value="message&lt;br&gt;queue 1" style="rounded=0;whiteSpace=wrap;html=1;" vertex="1" parent="1">
          <mxGeometry x="170" y="155" width="60" height="35" as="geometry" />
        </mxCell>
        <mxCell id="37AlTuy4jyxTx8HZtSst-18" value="message&lt;br&gt;queue 1" style="rounded=0;whiteSpace=wrap;html=1;" vertex="1" parent="1">
          <mxGeometry x="170" y="440" width="60" height="35" as="geometry" />
        </mxCell>
        <mxCell id="37AlTuy4jyxTx8HZtSst-19" value="message&lt;br&gt;queue 1" style="rounded=0;whiteSpace=wrap;html=1;" vertex="1" parent="1">
          <mxGeometry x="170" y="590" width="60" height="35" as="geometry" />
        </mxCell>
        <mxCell id="37AlTuy4jyxTx8HZtSst-20" value="message&lt;br&gt;queue 1" style="rounded=0;whiteSpace=wrap;html=1;" vertex="1" parent="1">
          <mxGeometry x="165.5" y="807" width="60" height="35" as="geometry" />
        </mxCell>
      </root>
    </mxGraphModel>
  </diagram>
</mxfile>
